<svg xmlns="http://www.w3.org/2000/svg" width="20" height="20" viewBox="0 0 20 20" fill="none">
    <path d="M11.25 5.27344C12.0914 5.27344 12.7734 4.59137 12.7734 3.75H13.4766C13.4766 4.59137 14.1586 5.27344 15 5.27344V5.97656C14.1586 5.97656 13.4766 6.65863 13.4766 7.5H12.7734C12.7734 6.65863 12.0914 5.97656 11.25 5.97656V5.27344ZM3.125 9.375C5.19607 9.375 6.875 7.69607 6.875 5.625H8.125C8.125 7.69607 9.80394 9.375 11.875 9.375V10.625C9.80394 10.625 8.125 12.3039 8.125 14.375H6.875C6.875 12.3039 5.19607 10.625 3.125 10.625V9.375ZM5.54751 10C6.36698 10.4548 7.04527 11.133 7.5 11.9525C7.95473 11.133 8.63302 10.4548 9.4525 10C8.63302 9.54525 7.95473 8.867 7.5 8.04751C7.04527 8.867 6.36698 9.54525 5.54751 10ZM13.2812 11.25C13.2812 12.3718 12.3718 13.2812 11.25 13.2812V14.2188C12.3718 14.2188 13.2812 15.1282 13.2812 16.25H14.2188C14.2188 15.1282 15.1282 14.2188 16.25 14.2188V13.2812C15.1282 13.2812 14.2188 12.3718 14.2188 11.25H13.2812Z" fill="#525866"/>
</svg>
