<svg xmlns="http://www.w3.org/2000/svg" width="16" height="16" viewBox="0 0 16 16" fill="none">
    <path d="M13.3999 12.1996H14.5999V13.3996H1.3999V12.1996H2.5999V3.19961C2.5999 3.04048 2.66312 2.88787 2.77564 2.77535C2.88816 2.66282 3.04077 2.59961 3.1999 2.59961H9.1999C9.35903 2.59961 9.51164 2.66282 9.62417 2.77535C9.73669 2.88787 9.7999 3.04048 9.7999 3.19961V12.1996H12.1999V7.39961H10.9999V6.19961H12.7999C12.959 6.19961 13.1116 6.26282 13.2242 6.37535C13.3367 6.48787 13.3999 6.64048 13.3999 6.79961V12.1996ZM3.7999 3.79961V12.1996H8.5999V3.79961H3.7999ZM4.9999 7.39961H7.3999V8.59961H4.9999V7.39961ZM4.9999 4.99961H7.3999V6.19961H4.9999V4.99961Z" fill="#99A0AE"/>
</svg>
