<svg xmlns="http://www.w3.org/2000/svg" width="20" height="21" viewBox="0 0 20 21" fill="none">
    <path d="M8.08667 12.5254L4.46362 16.1494V16.1504C4.41855 16.1956 4.35749 16.2217 4.2937 16.2236C4.22997 16.2255 4.16752 16.2025 4.11987 16.1602C4.07239 16.1178 4.04337 16.0585 4.03784 15.9951C4.03257 15.9341 4.04922 15.8732 4.08569 15.8242L4.12964 15.7764L7.73315 12.1719L8.08667 12.5254ZM6.05933 4.30957C6.18237 4.32001 6.30506 4.34006 6.42554 4.37207C6.84105 4.4825 7.21311 4.71654 7.49292 5.04297C7.77268 5.36935 7.94729 5.77276 7.99292 6.2002C8.03848 6.62766 7.95342 7.05945 7.74878 7.4375L7.57104 7.76562L15.5125 15.707L15.1589 16.0615L7.48022 8.38281L7.21753 8.11914L6.8894 8.2959C6.51126 8.49981 6.08024 8.58493 5.65308 8.53906C5.22587 8.49311 4.82205 8.31872 4.49585 8.03906C4.16962 7.75932 3.93554 7.38695 3.82495 6.97168C3.79321 6.85246 3.77309 6.73114 3.76245 6.60938L4.72925 7.57617C4.87795 7.72853 5.05507 7.85052 5.25073 7.93457C5.44886 8.01967 5.66207 8.06448 5.87769 8.06641C6.09344 8.06828 6.30787 8.02701 6.50757 7.94531C6.70727 7.86361 6.88917 7.74242 7.04175 7.58984C7.19409 7.43739 7.31461 7.25612 7.39624 7.05664C7.47795 6.85693 7.51921 6.64252 7.51733 6.42676C7.51542 6.21112 7.4706 5.99795 7.3855 5.7998C7.32159 5.65102 7.23597 5.51267 7.13159 5.38965L7.02124 5.27246L6.05933 4.30957ZM15.5994 5.1875L14.5681 7.04199L13.4695 7.2627L13.321 7.29199L13.2146 7.39941L11.9773 8.63672L11.6238 8.2832L12.9675 6.93945L12.9978 6.79102L13.2175 5.69043L15.072 4.66016L15.5994 5.1875Z" stroke="#525866"/>
</svg>
