<svg xmlns="http://www.w3.org/2000/svg" width="20" height="20" viewBox="0 0 20 20" fill="none">
    <path d="M3.09991 4.89988L6.24991 6.99988L9.38941 2.60488C9.45879 2.50766 9.55039 2.42841 9.65657 2.37373C9.76276 2.31905 9.88048 2.29053 9.99991 2.29053C10.1194 2.29053 10.2371 2.31905 10.3433 2.37373C10.4494 2.42841 10.541 2.50766 10.6104 2.60488L13.7499 6.99988L16.8999 4.89988C17.0191 4.82056 17.1586 4.77703 17.3017 4.77443C17.4449 4.77183 17.5858 4.81026 17.7078 4.88519C17.8298 4.96013 17.9279 5.06842 17.9903 5.19728C18.0527 5.32614 18.077 5.47018 18.0602 5.61238L16.8279 16.0876C16.8064 16.2701 16.7187 16.4383 16.5814 16.5603C16.4442 16.6824 16.2669 16.7499 16.0832 16.7499H3.91666C3.73296 16.7499 3.55566 16.6824 3.41839 16.5603C3.28111 16.4383 3.19341 16.2701 3.17191 16.0876L1.93966 5.61163C1.92301 5.46949 1.94738 5.32556 2.00988 5.19682C2.07238 5.06808 2.17041 4.95991 2.2924 4.88507C2.41438 4.81024 2.55523 4.77187 2.69832 4.7745C2.8414 4.77712 2.98075 4.82063 3.09991 4.89988V4.89988ZM9.99991 12.2499C10.3977 12.2499 10.7793 12.0918 11.0606 11.8105C11.3419 11.5292 11.4999 11.1477 11.4999 10.7499C11.4999 10.3521 11.3419 9.97052 11.0606 9.68922C10.7793 9.40791 10.3977 9.24988 9.99991 9.24988C9.60209 9.24988 9.22056 9.40791 8.93925 9.68922C8.65795 9.97052 8.49991 10.3521 8.49991 10.7499C8.49991 11.1477 8.65795 11.5292 8.93925 11.8105C9.22056 12.0918 9.60209 12.2499 9.99991 12.2499Z" fill="#F6B51E"/>
</svg>
