<svg xmlns="http://www.w3.org/2000/svg" width="20" height="20" viewBox="0 0 20 20" fill="none">
    <path d="M16 6.4285L10.054 11.7535L4 6.412V15.25H11.5V16.75H3.25C3.05109 16.75 2.86032 16.671 2.71967 16.5303C2.57902 16.3897 2.5 16.1989 2.5 16V4C2.5 3.80109 2.57902 3.61032 2.71967 3.46967C2.86032 3.32902 3.05109 3.25 3.25 3.25H16.75C16.9489 3.25 17.1397 3.32902 17.2803 3.46967C17.421 3.61032 17.5 3.80109 17.5 4V10.75H16V6.4285ZM15.6257 4.75H4.38325L10.0457 9.7465L15.6265 4.75H15.6257ZM13.7875 15.661C13.7373 15.3893 13.7373 15.1107 13.7875 14.839L13.027 14.3995L13.777 13.1005L14.5375 13.54C14.746 13.3615 14.9867 13.2213 15.25 13.1275V12.25H16.75V13.1275C17.0132 13.2213 17.254 13.3615 17.4625 13.54L18.223 13.1005L18.973 14.3995L18.2125 14.839C18.2627 15.1107 18.2627 15.3893 18.2125 15.661L18.973 16.1005L18.223 17.3995L17.4625 16.96C17.2524 17.1402 17.0109 17.28 16.75 17.3725V18.25H15.25V17.3725C14.9891 17.28 14.7476 17.1402 14.5375 16.96L13.777 17.3995L13.027 16.1005L13.7875 15.661ZM16 16C16.1989 16 16.3897 15.921 16.5303 15.7803C16.671 15.6397 16.75 15.4489 16.75 15.25C16.75 15.0511 16.671 14.8603 16.5303 14.7197C16.3897 14.579 16.1989 14.5 16 14.5C15.8011 14.5 15.6103 14.579 15.4697 14.7197C15.329 14.8603 15.25 15.0511 15.25 15.25C15.25 15.4489 15.329 15.6397 15.4697 15.7803C15.6103 15.921 15.8011 16 16 16Z" fill="#525866"/>
</svg>
