<svg xmlns="http://www.w3.org/2000/svg" width="20" height="20" viewBox="0 0 20 20" fill="none">
    <path d="M10.8402 13.7675L7.6909 12.05C7.27975 12.4896 6.74589 12.7953 6.15871 12.9274C5.57153 13.0596 4.95817 13.0121 4.39835 12.7911C3.83852 12.57 3.35812 12.1857 3.01958 11.6881C2.68104 11.1905 2.5 10.6025 2.5 10.0006C2.5 9.39878 2.68104 8.81082 3.01958 8.31319C3.35812 7.81556 3.83852 7.43126 4.39835 7.21025C4.95817 6.98923 5.57153 6.94171 6.15871 7.07386C6.74589 7.20601 7.27975 7.51173 7.6909 7.95127L10.8409 6.23377C10.6621 5.52583 10.7476 4.77697 11.0814 4.12755C11.4152 3.47814 11.9744 2.97276 12.6542 2.70615C13.3339 2.43954 14.0876 2.43 14.7739 2.67933C15.4602 2.92865 16.032 3.41971 16.3821 4.06047C16.7323 4.70123 16.8367 5.44769 16.6758 6.15993C16.515 6.87218 16.0999 7.5013 15.5083 7.92938C14.9168 8.35746 14.1894 8.55511 13.4626 8.48527C12.7358 8.41543 12.0594 8.08291 11.5602 7.55002L8.41015 9.26752C8.53106 9.74854 8.53106 10.252 8.41015 10.733L11.5594 12.4505C12.0586 11.9176 12.735 11.5851 13.4619 11.5153C14.1887 11.4454 14.916 11.6431 15.5076 12.0712C16.0991 12.4992 16.5142 13.1284 16.6751 13.8406C16.8359 14.5529 16.7315 15.2993 16.3814 15.9401C16.0312 16.5808 15.4594 17.0719 14.7731 17.3212C14.0868 17.5705 13.3332 17.561 12.6534 17.2944C11.9736 17.0278 11.4144 16.5224 11.0806 15.873C10.7468 15.2236 10.6613 14.4747 10.8402 13.7668V13.7675ZM5.50015 11.5003C5.89798 11.5003 6.27951 11.3422 6.56081 11.0609C6.84212 10.7796 7.00015 10.3981 7.00015 10.0003C7.00015 9.60245 6.84212 9.22092 6.56081 8.93961C6.27951 8.65831 5.89798 8.50027 5.50015 8.50027C5.10233 8.50027 4.7208 8.65831 4.43949 8.93961C4.15819 9.22092 4.00015 9.60245 4.00015 10.0003C4.00015 10.3981 4.15819 10.7796 4.43949 11.0609C4.7208 11.3422 5.10233 11.5003 5.50015 11.5003ZM13.7502 7.00027C14.148 7.00027 14.5295 6.84224 14.8108 6.56094C15.0921 6.27963 15.2502 5.8981 15.2502 5.50027C15.2502 5.10245 15.0921 4.72092 14.8108 4.43961C14.5295 4.15831 14.148 4.00027 13.7502 4.00027C13.3523 4.00027 12.9708 4.15831 12.6895 4.43961C12.4082 4.72092 12.2502 5.10245 12.2502 5.50027C12.2502 5.8981 12.4082 6.27963 12.6895 6.56094C12.9708 6.84224 13.3523 7.00027 13.7502 7.00027ZM13.7502 16.0003C14.148 16.0003 14.5295 15.8422 14.8108 15.5609C15.0921 15.2796 15.2502 14.8981 15.2502 14.5003C15.2502 14.1025 15.0921 13.7209 14.8108 13.4396C14.5295 13.1583 14.148 13.0003 13.7502 13.0003C13.3523 13.0003 12.9708 13.1583 12.6895 13.4396C12.4082 13.7209 12.2502 14.1025 12.2502 14.5003C12.2502 14.8981 12.4082 15.2796 12.6895 15.5609C12.9708 15.8422 13.3523 16.0003 13.7502 16.0003Z" fill="#525866"/>
</svg>
