<svg xmlns="http://www.w3.org/2000/svg" width="140" height="110" fill="none" viewBox="0 0 140 110"><path fill="#eaeef9" d="M71.255 86.413c20.677 0 37.44-16.68 37.44-37.327 0-20.648-16.836-37.328-37.44-37.328-20.676 0-37.44 16.68-37.44 37.328 0 20.647 16.764 37.327 37.44 37.327"/><path fill="#f1f3f9" d="M105.963 24.69a3.02 3.02 0 0 0 3.028-3.013 3.02 3.02 0 0 0-3.028-3.013 3.02 3.02 0 0 0-3.027 3.013 3.02 3.02 0 0 0 3.027 3.012"/><path fill="#eaeef9" d="M110.394 12.933a2.063 2.063 0 0 0 2.068-2.057 2.063 2.063 0 0 0-2.068-2.058 2.063 2.063 0 0 0-2.068 2.058c0 1.136.926 2.057 2.068 2.057m-79.68 16.901a2.063 2.063 0 0 0 2.068-2.058 2.063 2.063 0 0 0-2.068-2.057 2.063 2.063 0 0 0-2.068 2.057c0 1.137.926 2.058 2.068 2.058m11.372 57.167c2.121 0 3.84-1.71 3.84-3.82s-1.719-3.822-3.84-3.822-3.84 1.711-3.84 3.821 1.72 3.821 3.84 3.821"/><g filter="url(#a)"><path fill="url(#b)" d="M118 59.08c0 9.495-7.717 17.173-17.341 17.173H42.743C31.21 76.501 22 67.337 22 56.273c0-11.145 9.293-20.392 20.992-19.814C53.032 5.25 99 9.626 102.9 41.908c8.628 1.072 15.1 8.338 15.1 17.172"/></g><path fill="url(#c)" d="M100.659 76.254C110.2 76.254 118 68.576 118 59.08s-7.8-17.173-17.341-17.173-17.342 7.678-17.342 17.173 7.8 17.173 17.342 17.173"/><path fill="url(#d)" d="M72.365 76.419c17.01 0 30.866-13.705 30.866-30.63 0-16.926-13.857-30.63-30.866-30.63-17.01 0-30.866 13.704-30.866 30.63s13.773 30.63 30.866 30.63"/><path fill="#989fb0" d="m63.81 46.668 1.444-1.44a1.12 1.12 0 0 0 0-1.56 1.13 1.13 0 0 0-1.564 0l-1.444 1.44-1.443-1.44a1.13 1.13 0 0 0-1.564 0 1.12 1.12 0 0 0 0 1.56l1.443 1.44-1.443 1.44a1.12 1.12 0 0 0 0 1.559c.24.24.481.3.782.3.3 0 .541-.12.782-.3l1.443-1.44 1.444 1.44c.24.24.48.3.782.3.3 0 .54-.12.782-.3a1.12 1.12 0 0 0 0-1.56zm15.312 0 1.604-1.44c.468-.42.468-1.14 0-1.56s-1.27-.42-1.737 0l-1.604 1.44-1.604-1.44c-.468-.42-1.27-.42-1.738 0a1.042 1.042 0 0 0 0 1.56l1.604 1.44-1.604 1.44a1.042 1.042 0 0 0 0 1.559c.268.24.535.3.869.3s.601-.12.869-.3l1.604-1.44 1.604 1.44c.267.24.534.3.868.3.335 0 .602-.12.87-.3.467-.42.467-1.14 0-1.56z"/><path fill="#989fb0" fill-rule="evenodd" d="M37.313 17.673a1.273 1.273 0 0 1 1.546-.915l4.815 1.218a1.265 1.265 0 1 1-.626 2.454l-4.815-1.218a1.265 1.265 0 0 1-.92-1.539M41.404 4.2a1.276 1.276 0 0 1 1.767.337l5.756 8.437a1.26 1.26 0 0 1-.338 1.758 1.276 1.276 0 0 1-1.767-.336l-5.756-8.438a1.26 1.26 0 0 1 .338-1.758M52.081.394c.69-.136 1.359.31 1.495.996l1.99 10.004a1.266 1.266 0 0 1-1 1.487 1.27 1.27 0 0 1-1.496-.996L51.08 1.882A1.266 1.266 0 0 1 52.081.394" clip-rule="evenodd"/><path fill="#989fb0" d="M61.877 56.58h16.985v2.204H61.877z"/><path fill="#989fb0" d="M72.215 57.315h2.954v3.666a1.477 1.477 0 0 1-2.954 0z"/><path fill="url(#e)" d="M111.054 25.03a18 18 0 0 1-1.364 3.758c-1.522 2.742-3.779 4.976-6.612 6.347-2.939 1.472-6.402 1.98-9.918 1.32-8.187-1.676-13.487-9.394-11.755-17.365 1.732-7.972 9.656-13.1 17.894-11.425 2.939.61 5.51 1.98 7.662 3.96 3.568 3.555 5.09 8.582 4.093 13.405"/><path fill="#fff" stroke="#fff" d="M96.215 11.992c1.435 0 2.434 1.321 2.34 2.818v.01l-.6 7.409c-.058.935-.786 1.785-1.74 1.785s-1.68-.85-1.738-1.785l-.601-7.41-.001-.008c-.094-1.445.899-2.818 2.34-2.819Zm0 14.696c1.3 0 2.346 1.037 2.346 2.336 0 1.3-1.047 2.337-2.346 2.337a2.334 2.334 0 0 1-2.346-2.337 2.334 2.334 0 0 1 2.346-2.337Z"/><defs><linearGradient id="b" x1="70" x2="69.969" y1="40.451" y2="76.916" gradientUnits="userSpaceOnUse"><stop stop-color="#fff"/><stop offset=".996" stop-color="#ecf0f5"/></linearGradient><linearGradient id="c" x1="81.472" x2="96.761" y1="38.211" y2="55.017" gradientUnits="userSpaceOnUse"><stop stop-color="#bccbe1"/><stop offset=".994" stop-color="#fff" stop-opacity="0"/></linearGradient><linearGradient id="d" x1="38.608" x2="62.806" y1="31.733" y2="41.249" gradientUnits="userSpaceOnUse"><stop stop-color="#e2e8f0"/><stop offset=".994" stop-color="#fff" stop-opacity="0"/></linearGradient><linearGradient id="e" x1="81.063" x2="111.359" y1="22.047" y2="22.047" gradientUnits="userSpaceOnUse"><stop stop-color="#b0bacc"/><stop offset="1" stop-color="#969eae"/></linearGradient><filter id="a" width="140" height="105.025" x="0" y="4.232" color-interpolation-filters="sRGB" filterUnits="userSpaceOnUse"><feFlood flood-opacity="0" result="BackgroundImageFix"/><feColorMatrix in="SourceAlpha" result="hardAlpha" values="0 0 0 0 0 0 0 0 0 0 0 0 0 0 0 0 0 0 127 0"/><feOffset dy="11"/><feGaussianBlur stdDeviation="11"/><feColorMatrix values="0 0 0 0 0.397708 0 0 0 0 0.47749 0 0 0 0 0.575 0 0 0 0.27 0"/><feBlend in2="BackgroundImageFix" result="effect1_dropShadow_9049_109730"/><feBlend in="SourceGraphic" in2="effect1_dropShadow_9049_109730" result="shape"/></filter></defs></svg>