<svg xmlns="http://www.w3.org/2000/svg" width="20" height="21" viewBox="0 0 20 21" fill="none">
    <path d="M17.501 15L15 17.251V15.25H12.75V14.75H15V12.748L17.501 15ZM3.25 4.25H8.60352L10.1035 5.75H16.75C16.8163 5.75 16.8799 5.77636 16.9268 5.82324C16.9736 5.87013 17 5.93369 17 6V10.75H16.5V6.25H9.89648L8.39648 4.75H3.5V16.25H10.25V16.75H3.25C3.18369 16.75 3.12013 16.7236 3.07324 16.6768C3.02636 16.6299 3 16.5663 3 16.5V4.5C3 4.4337 3.02636 4.37013 3.07324 4.32324C3.10844 4.28804 3.15306 4.26447 3.20117 4.25488L3.25 4.25Z" stroke="#525866"/>
</svg>
