<svg xmlns="http://www.w3.org/2000/svg" width="20" height="20" viewBox="0 0 20 20" fill="none">
    <path d="M16.75 9.7345V16.75C16.75 16.9489 16.671 17.1397 16.5303 17.2803C16.3897 17.421 16.1989 17.5 16 17.5H4C3.80109 17.5 3.61033 17.421 3.46967 17.2803C3.32902 17.1397 3.25 16.9489 3.25 16.75V9.7345C2.76574 9.18697 2.49892 8.48096 2.5 7.75V3.25C2.5 3.05109 2.57902 2.86032 2.71967 2.71967C2.86033 2.57902 3.05109 2.5 3.25 2.5H16.75C16.9489 2.5 17.1397 2.57902 17.2803 2.71967C17.421 2.86032 17.5 3.05109 17.5 3.25V7.75C17.5 8.5105 17.2165 9.205 16.75 9.7345ZM15.25 10.6555C14.7136 10.7933 14.1496 10.7802 13.6202 10.6177C13.0908 10.4552 12.6167 10.1495 12.25 9.7345C11.9688 10.0541 11.6226 10.3099 11.2346 10.4851C10.8466 10.6602 10.4257 10.7505 10 10.75C9.57431 10.7505 9.15342 10.6602 8.76541 10.4851C8.37741 10.3099 8.03124 10.0541 7.75 9.7345C7.38424 10.1507 6.9101 10.4572 6.38042 10.6198C5.85073 10.7824 5.2863 10.7948 4.75 10.6555V16H15.25V10.6555ZM11.5 7.75C11.5 7.55109 11.579 7.36032 11.7197 7.21967C11.8603 7.07902 12.0511 7 12.25 7C12.4489 7 12.6397 7.07902 12.7803 7.21967C12.921 7.36032 13 7.55109 13 7.75C13 8.14782 13.158 8.52936 13.4393 8.81066C13.7206 9.09196 14.1022 9.25 14.5 9.25C14.8978 9.25 15.2794 9.09196 15.5607 8.81066C15.842 8.52936 16 8.14782 16 7.75V4H4V7.75C4 8.14782 4.15804 8.52936 4.43934 8.81066C4.72065 9.09196 5.10218 9.25 5.5 9.25C5.89783 9.25 6.27936 9.09196 6.56066 8.81066C6.84197 8.52936 7 8.14782 7 7.75C7 7.55109 7.07902 7.36032 7.21967 7.21967C7.36033 7.07902 7.55109 7 7.75 7C7.94892 7 8.13968 7.07902 8.28033 7.21967C8.42099 7.36032 8.5 7.55109 8.5 7.75C8.5 8.14782 8.65804 8.52936 8.93934 8.81066C9.22065 9.09196 9.60218 9.25 10 9.25C10.3978 9.25 10.7794 9.09196 11.0607 8.81066C11.342 8.52936 11.5 8.14782 11.5 7.75Z" fill="#525866"/>
</svg>
