<svg xmlns="http://www.w3.org/2000/svg" width="20" height="21" viewBox="0 0 20 21" fill="none">
    <path d="M7.75 13.998C8.11223 13.998 8.46602 14.1101 8.76172 14.3193C9.0573 14.5285 9.28085 14.8245 9.40137 15.166L9.51855 15.5H17V16H9.51855L9.40137 16.334C9.28088 16.6752 9.05707 16.9705 8.76172 17.1797C8.46602 17.3889 8.11223 17.502 7.75 17.502L7.61426 17.4961C7.30008 17.4717 6.99689 17.3627 6.73828 17.1797C6.44293 16.9705 6.21912 16.6752 6.09863 16.334L5.98145 16H3V15.5H5.98145L6.09863 15.166C6.21915 14.8245 6.4427 14.5285 6.73828 14.3193C6.99691 14.1363 7.30006 14.0274 7.61426 14.0029L7.75 13.998ZM7.75 14.5C7.41848 14.5 7.10063 14.6318 6.86621 14.8662C6.63183 15.1006 6.5 15.4185 6.5 15.75L6.50586 15.873C6.53419 16.1594 6.661 16.4286 6.86621 16.6338C7.10063 16.8682 7.41851 17 7.75 17C8.08149 17 8.39937 16.8682 8.63379 16.6338C8.86818 16.3994 8.99997 16.0815 9 15.75C9 15.4185 8.86817 15.1006 8.63379 14.8662C8.39937 14.6318 8.08152 14.5 7.75 14.5ZM12.25 8.74805C12.6122 8.74805 12.966 8.86011 13.2617 9.06934C13.5573 9.27854 13.7809 9.57453 13.9014 9.91602L14.0186 10.25H17V10.75H14.0186L13.9014 11.084C13.7809 11.4252 13.5571 11.7205 13.2617 11.9297C12.966 12.1389 12.6122 12.252 12.25 12.252C11.8878 12.252 11.534 12.1389 11.2383 11.9297C10.9429 11.7205 10.7191 11.4252 10.5986 11.084L10.4814 10.75H3V10.25H10.4814L10.5986 9.91602C10.7191 9.57453 10.9427 9.27854 11.2383 9.06934C11.534 8.86011 11.8878 8.74805 12.25 8.74805ZM12.25 9.25C11.9185 9.25 11.6006 9.38179 11.3662 9.61621C11.1318 9.85063 11 10.1685 11 10.5C11 10.8315 11.1318 11.1494 11.3662 11.3838C11.6006 11.6182 11.9185 11.75 12.25 11.75C12.5815 11.75 12.8994 11.6182 13.1338 11.3838C13.3682 11.1494 13.5 10.8315 13.5 10.5C13.5 10.1685 13.3682 9.85063 13.1338 9.61621C12.8994 9.38179 12.5815 9.25 12.25 9.25ZM7.75 3.49805C8.11223 3.49805 8.46602 3.61011 8.76172 3.81934C9.0573 4.02854 9.28085 4.32453 9.40137 4.66602L9.51855 5H17V5.5H9.51855L9.40137 5.83398C9.28088 6.17525 9.05707 6.47054 8.76172 6.67969C8.46602 6.88892 8.11223 7.00195 7.75 7.00195C7.38777 7.00195 7.03398 6.88892 6.73828 6.67969C6.44293 6.47054 6.21912 6.17525 6.09863 5.83398L5.98145 5.5H3V5H5.98145L6.09863 4.66602C6.21915 4.32453 6.4427 4.02854 6.73828 3.81934C7.03398 3.61011 7.38777 3.49805 7.75 3.49805ZM7.75 4C7.41848 4 7.10063 4.13179 6.86621 4.36621C6.63183 4.60063 6.5 4.91851 6.5 5.25L6.50586 5.37305C6.53419 5.65935 6.661 5.92857 6.86621 6.13379C7.10063 6.36817 7.41851 6.5 7.75 6.5C8.08149 6.5 8.39937 6.36817 8.63379 6.13379C8.86818 5.8994 8.99997 5.58148 9 5.25C9 4.91851 8.86817 4.60063 8.63379 4.36621C8.42878 4.1612 8.16001 4.03436 7.87402 4.00586L7.75 4Z" stroke="#525866"/>
</svg>
