<svg xmlns="http://www.w3.org/2000/svg" width="20" height="21" viewBox="0 0 20 21" fill="none">
    <path d="M11.5029 8.99707C11.9439 9.43803 12.2935 9.96195 12.5322 10.5381C12.771 11.1144 12.8945 11.7326 12.8945 12.3564L12.8887 12.5898C12.8619 13.1338 12.7411 13.6696 12.5322 14.1738C12.3234 14.678 12.0297 15.1424 11.6641 15.5459L11.5029 15.7148L11.2373 15.9795V15.9805C10.3465 16.8713 9.13773 17.3711 7.87793 17.3711L7.64258 17.3652C6.46867 17.307 5.35465 16.8154 4.51953 15.9805C3.62868 15.0896 3.12793 13.8809 3.12793 12.6211C3.12795 11.5291 3.50426 10.4761 4.18457 9.63477L4.54004 9.99023C4.29752 10.2955 4.09729 10.633 3.94629 10.9941C3.73043 11.5105 3.61841 12.0644 3.61719 12.624C3.61598 13.1835 3.72499 13.7377 3.93848 14.2549C4.15208 14.7722 4.4656 15.2429 4.86133 15.6387C5.25708 16.0344 5.7278 16.3479 6.24512 16.5615C6.76227 16.775 7.31648 16.884 7.87598 16.8828C8.43549 16.8816 8.98962 16.7704 9.50586 16.5547C10.0215 16.3391 10.4901 16.0237 10.8838 15.627L11.1494 15.3613C11.9462 14.5643 12.3935 13.4834 12.3936 12.3564L12.3887 12.1455C12.34 11.1653 11.9536 10.2315 11.2949 9.50391L11.1494 9.35156L10.4414 8.64355L10.7959 8.29004L11.5029 8.99707ZM12.1221 3.62891C13.3818 3.62901 14.5897 4.12975 15.4805 5.02051C16.3712 5.91129 16.872 7.11918 16.8721 8.37891L16.8662 8.61426C16.8163 9.62178 16.4459 10.5844 15.8145 11.3652L15.459 11.0098C15.7015 10.7046 15.9027 10.3679 16.0537 10.0068C16.2695 9.4906 16.3815 8.93648 16.3828 8.37695C16.384 7.81732 16.2751 7.26239 16.0615 6.74512C15.8479 6.2278 15.5335 5.75806 15.1377 5.3623C14.742 4.96658 14.2722 4.65208 13.7549 4.43848C13.2378 4.22499 12.6835 4.11601 12.124 4.11719C11.5643 4.11841 11.0095 4.23041 10.4932 4.44629C10.0414 4.63523 9.6263 4.90077 9.26562 5.23047L9.11426 5.375L8.85059 5.63867V5.63965C8.05407 6.43653 7.60654 7.51685 7.60645 8.64355L7.61133 8.85449C7.65992 9.83474 8.04644 10.7685 8.70508 11.4961L8.85059 11.6484L9.55762 12.3555L9.2041 12.71L8.49707 12.0029C8.05602 11.5619 7.7065 11.0381 7.46777 10.4619C7.22903 9.88559 7.10547 9.26737 7.10547 8.64355C7.10552 8.01986 7.22908 7.40239 7.46777 6.82617C7.67667 6.32191 7.97019 5.85769 8.33594 5.4541L8.49707 5.28516L8.7627 5.02051C9.65354 4.12966 10.8622 3.62891 12.1221 3.62891Z" stroke="#525866"/>
</svg>
