<svg xmlns="http://www.w3.org/2000/svg" width="20" height="20" viewBox="0 0 20 20" fill="none">
    <path d="M6.25 15.25V10.75H13.75V15.25H15.25V6.871L13.129 4.75H4.75V15.25H6.25ZM4 3.25H13.75L16.75 6.25V16C16.75 16.1989 16.671 16.3897 16.5303 16.5303C16.3897 16.671 16.1989 16.75 16 16.75H4C3.80109 16.75 3.61032 16.671 3.46967 16.5303C3.32902 16.3897 3.25 16.1989 3.25 16V4C3.25 3.80109 3.32902 3.61032 3.46967 3.46967C3.61032 3.32902 3.80109 3.25 4 3.25V3.25ZM7.75 12.25V15.25H12.25V12.25H7.75Z" fill="#525866"/>
</svg>
