<svg xmlns="http://www.w3.org/2000/svg" width="20" height="21" viewBox="0 0 20 21" fill="none">
    <path d="M4 3.5H16C16.0663 3.5 16.1299 3.52636 16.1768 3.57324C16.2236 3.62013 16.25 3.68369 16.25 3.75V17.25C16.25 17.3163 16.2236 17.3799 16.1768 17.4268C16.1299 17.4736 16.0663 17.5 16 17.5H4C3.93369 17.5 3.87013 17.4736 3.82324 17.4268C3.77636 17.3799 3.75 17.3163 3.75 17.25V3.75C3.75 3.6837 3.77636 3.62013 3.82324 3.57324C3.85844 3.53804 3.90306 3.51447 3.95117 3.50488L4 3.5ZM4.25 17H15.75V4H4.25V17ZM10.25 13.25V13.75H7.5V13.25H10.25ZM12.5 10.25V10.75H7.5V10.25H12.5ZM12.5 7.25V7.75H7.5V7.25H12.5Z" stroke="#525866"/>
</svg>
