<svg xmlns="http://www.w3.org/2000/svg" width="30" height="30" viewBox="0 0 30 30" fill="none">
    <rect width="30" height="30" rx="3" fill="#00B36D"/>
    <path fill-rule="evenodd" clip-rule="evenodd" d="M24.767 7.57885V13.3191C24.257 12.0861 23.0892 11.2519 21.7585 11.1706C21.3801 11.1421 20.999 11.1787 20.6314 11.2777L6.96168 14.9427C6.87351 14.9685 6.78264 14.9834 6.69176 14.9874C6.62936 14.9983 6.56697 15.0037 6.50458 15.0037C5.86843 15.0064 5.35029 14.4951 5.34351 13.8589C5.33537 13.8047 5.3313 13.7504 5.3313 13.6948V11.7525V11.6236C5.33401 11.5883 5.33672 11.5531 5.34351 11.5192V11.4893C5.34351 11.4798 5.35707 11.4229 5.36521 11.3889C5.36792 11.3754 5.37063 11.3618 5.3747 11.3483C5.3747 11.3225 5.38827 11.2954 5.39641 11.2696C5.40454 11.2438 5.41404 11.2153 5.42489 11.1882C5.43032 11.1773 5.43574 11.1651 5.43845 11.1543C5.62835 10.6728 6.03662 10.3093 6.53713 10.1763L22.5575 5.88607C22.6646 5.85623 22.7758 5.83589 22.8871 5.82503C22.9684 5.8074 23.0525 5.79791 23.1353 5.79248H23.2085C24.0644 5.79248 24.7575 6.4856 24.7575 7.34148C24.7575 7.34419 24.7575 7.3469 24.7575 7.34962V7.37946C24.7629 7.44185 24.767 7.50831 24.767 7.57885Z" fill="white"/>
    <path fill-rule="evenodd" clip-rule="evenodd" d="M21.0679 13.4628H20.8482C20.6352 13.4628 20.4237 13.4913 20.2188 13.5456L18.0961 14.1153L6.62103 17.1929C6.4447 17.22 6.27515 17.2811 6.12052 17.3706H6.10289C5.62544 17.6487 5.33246 18.1587 5.3311 18.7107V24.5825C5.32975 24.6178 5.35688 24.649 5.39214 24.6503C5.41791 24.6503 5.44233 24.6368 5.45454 24.6124C5.99438 23.6141 6.76752 22.7609 7.71021 22.1261C8.12391 21.8331 8.57559 21.5971 9.05304 21.4248C9.20088 21.3706 9.35009 21.3245 9.50336 21.2811L10.3104 21.0627L21.2728 18.1261L21.4993 18.0637C21.6105 18.0447 21.719 18.0149 21.8248 17.9769C23.0374 17.551 23.6749 16.2244 23.249 15.0118C22.9221 14.0813 22.0445 13.4588 21.0598 13.4561L21.0693 13.4601L21.0679 13.4628Z" fill="white"/>
</svg>
