<svg xmlns="http://www.w3.org/2000/svg" width="20" height="21" viewBox="0 0 20 21" fill="none">
    <path d="M11.75 17.75V18.25H8.25V17.75H11.75ZM10 3.5C11.4587 3.5 12.8572 4.07988 13.8887 5.11133C14.9201 6.14278 15.5 7.54131 15.5 9V14.75H17V15.25H3V14.75H4.5V9C4.5 7.54131 5.07988 6.14278 6.11133 5.11133C7.07838 4.14428 8.36805 3.57421 9.72754 3.50684L10 3.5ZM10 4C8.67392 4 7.40253 4.52716 6.46484 5.46484C5.52716 6.40253 5 7.67392 5 9V14.75H15V9C15 7.67392 14.4728 6.40253 13.5352 5.46484C12.5975 4.52716 11.3261 4 10 4Z" stroke="#525866"/>
</svg>
