<svg xmlns="http://www.w3.org/2000/svg" width="20" height="21" viewBox="0 0 20 21" fill="none">
    <path d="M15.4375 7.35059V13.6484L10 16.7969L4.5625 13.6484V7.35059L10 4.20215L15.4375 7.35059ZM14.4365 8.0752L10.375 10.4277L10.125 10.5723V16.4355L10.876 16.001L14.9385 13.6494L15.1875 13.5049V7.6416L14.4365 8.0752ZM9.74902 4.63672L5.68359 6.99121L4.93555 7.42383L5.68359 7.85645L9.75 10.2109L10 10.3555L10.251 10.2109L14.3164 7.85645L15.0645 7.42383L14.3164 6.99121L10.251 4.63672L10 4.49121L9.74902 4.63672ZM9.875 10.5723L9.62598 10.4277L5.56348 8.0752L4.8125 7.64062V13.5049L5.06152 13.6494L9.125 16.002L9.875 16.4355V10.5723Z" stroke="#525866"/>
</svg>
