<svg xmlns="http://www.w3.org/2000/svg" width="20" height="20" viewBox="0 0 20 20" fill="none">
    <path d="M6.25 7V5.5C6.25 4.50544 6.64509 3.55161 7.34835 2.84835C8.05161 2.14509 9.00544 1.75 10 1.75C10.9946 1.75 11.9484 2.14509 12.6517 2.84835C13.3549 3.55161 13.75 4.50544 13.75 5.5V7H16C16.1989 7 16.3897 7.07902 16.5303 7.21967C16.671 7.36032 16.75 7.55109 16.75 7.75V16.75C16.75 16.9489 16.671 17.1397 16.5303 17.2803C16.3897 17.421 16.1989 17.5 16 17.5H4C3.80109 17.5 3.61032 17.421 3.46967 17.2803C3.32902 17.1397 3.25 16.9489 3.25 16.75V7.75C3.25 7.55109 3.32902 7.36032 3.46967 7.21967C3.61032 7.07902 3.80109 7 4 7H6.25ZM6.25 8.5H4.75V16H15.25V8.5H13.75V10H12.25V8.5H7.75V10H6.25V8.5ZM7.75 7H12.25V5.5C12.25 4.90326 12.0129 4.33097 11.591 3.90901C11.169 3.48705 10.5967 3.25 10 3.25C9.40326 3.25 8.83097 3.48705 8.40901 3.90901C7.98705 4.33097 7.75 4.90326 7.75 5.5V7Z" fill="#99A0AE"/>
</svg>
