<svg xmlns="http://www.w3.org/2000/svg" width="20" height="21" viewBox="0 0 20 21" fill="none">
    <path d="M5.39941 10H3.5V10.5C3.4999 11.7743 3.87468 13.0208 4.57715 14.084C5.27961 15.147 6.27907 15.9798 7.45117 16.4795C8.62336 16.9792 9.91648 17.1239 11.1699 16.8945C12.2124 16.7038 13.1885 16.2604 14.0166 15.6094L14.2617 16.0508C13.1261 16.9252 11.7488 17.4304 10.3154 17.4932L10.001 17.5H10C6.13389 17.5 3 14.3661 3 10.5C3 9.29884 3.30175 8.1687 3.83398 7.18164L5.39941 10ZM9.99902 3.5H10C13.8661 3.5 17 6.6339 17 10.5C17 11.701 16.6971 12.8304 16.165 13.8174L14.6006 11H16.5V10.5C16.5001 9.22571 16.1253 7.9792 15.4229 6.91602C14.7204 5.853 13.7209 5.02017 12.5488 4.52051C11.3766 4.02081 10.0835 3.87613 8.83008 4.10547C7.78753 4.29625 6.81056 4.73853 5.98242 5.38965L5.7373 4.94824C6.87297 4.07375 8.25118 3.56958 9.68457 3.50684L9.99902 3.5Z" stroke="#525866"/>
</svg>
