<svg xmlns="http://www.w3.org/2000/svg" width="20" height="21" viewBox="0 0 20 21" fill="none">
    <path d="M12.2246 3.86328C13.1122 4.16103 13.9305 4.63377 14.6318 5.25391C14.4846 5.58342 14.4031 5.94014 14.3936 6.30371C14.3803 6.8109 14.5079 7.31264 14.7617 7.75195C15.0155 8.19113 15.3861 8.55115 15.832 8.79297C16.1511 8.96602 16.5001 9.07209 16.8584 9.10938C16.949 9.55862 16.999 10.023 16.999 10.5C16.999 10.9768 16.9489 11.4411 16.8584 11.8906C16.5002 11.928 16.1511 12.034 15.832 12.207C15.3862 12.4488 15.0165 12.8099 14.7627 13.249C14.5089 13.6882 14.3814 14.1892 14.3945 14.6963C14.404 15.0593 14.4861 15.415 14.6328 15.7441C13.9312 16.3649 13.1128 16.8378 12.2246 17.1357C12.0131 16.8438 11.7462 16.5942 11.4365 16.4043C11.004 16.1391 10.5064 15.998 9.99902 15.998C9.4916 15.9981 8.99408 16.139 8.56152 16.4043C8.25159 16.5944 7.98409 16.8435 7.77246 17.1357C6.88471 16.8377 6.06659 16.3647 5.36523 15.7441C5.51216 15.4149 5.59495 15.0595 5.60449 14.6963C5.61773 14.1891 5.49014 13.6874 5.23633 13.248C4.98261 12.8091 4.61264 12.4488 4.16699 12.207C3.84772 12.0339 3.49812 11.9269 3.13965 11.8896C3.04961 11.4411 3 10.977 3 10.5C3 10.0229 3.04902 9.55817 3.13965 9.1084C3.49819 9.07107 3.84771 8.96527 4.16699 8.79199C4.61255 8.55015 4.9827 8.18993 5.23633 7.75098C5.48999 7.31185 5.61763 6.81067 5.60449 6.30371C5.59506 5.94029 5.51225 5.58433 5.36523 5.25488C6.06656 4.63449 6.88479 4.16124 7.77246 3.86328C7.98416 4.15575 8.25137 4.40548 8.56152 4.5957C8.99408 4.86099 9.4916 5.00093 9.99902 5.00098C10.5064 5.00098 11.004 4.8609 11.4365 4.5957C11.7464 4.40563 12.013 4.15546 12.2246 3.86328ZM12.167 4.67188C11.5715 5.20537 10.7995 5.5004 10 5.5L9.70117 5.48633C9.00958 5.42294 8.35323 5.13877 7.83203 4.67188L7.58789 4.45312L7.29004 4.58984C6.9205 4.75949 6.56771 4.96358 6.23633 5.19922L5.96973 5.38965L6.03711 5.70996C6.18058 6.39437 6.09824 7.10411 5.80762 7.73438L5.66992 8C5.27058 8.69237 4.6296 9.21286 3.87012 9.46191L3.55762 9.56445L3.52734 9.8916C3.48985 10.2963 3.48985 10.7037 3.52734 11.1084L3.55762 11.4355L3.87012 11.5381C4.62398 11.7851 5.26002 12.2999 5.66016 12.9844L5.66992 13C6.07935 13.709 6.19615 14.5247 6.03613 15.291L5.96973 15.6113L6.23633 15.8008C6.56774 16.0363 6.92042 16.2404 7.29004 16.4102L7.58789 16.5469L7.83203 16.3281C8.35323 15.8612 9.00958 15.5771 9.70117 15.5137L10 15.5C10.8192 15.5 11.5848 15.8061 12.168 16.3281L12.4121 16.5469L12.71 16.4102C13.0796 16.2404 13.4323 16.0363 13.7637 15.8008L14.0303 15.6104L13.9629 15.29C13.8194 14.6056 13.9018 13.8959 14.1924 13.2656L14.3301 13C14.7294 12.3076 15.3704 11.7871 16.1299 11.5381L16.4424 11.4355L16.4727 11.1084C16.5102 10.7037 16.5102 10.2963 16.4727 9.8916L16.4424 9.56445L16.1299 9.46191L15.8506 9.35645C15.3045 9.12003 14.8337 8.73783 14.4902 8.25195L14.3291 8L14.1914 7.73438C13.9008 7.10408 13.8194 6.39438 13.9629 5.70996L14.0303 5.38965L13.7627 5.19922C13.4314 4.96362 13.0785 4.75947 12.709 4.58984L12.4111 4.45312L12.167 4.67188ZM10 8.75C10.4641 8.75 10.9091 8.93451 11.2373 9.2627C11.5655 9.59088 11.75 10.0359 11.75 10.5C11.75 10.9641 11.5655 11.4091 11.2373 11.7373C10.9091 12.0655 10.4641 12.25 10 12.25C9.53587 12.25 9.09088 12.0655 8.7627 11.7373C8.43451 11.4091 8.25 10.9641 8.25 10.5C8.25 10.0359 8.43451 9.59088 8.7627 9.2627C9.04988 8.97551 9.4265 8.79855 9.82715 8.75879L10 8.75ZM10 9.25C9.66848 9.25 9.35063 9.38179 9.11621 9.61621C8.8818 9.85063 8.75 10.1685 8.75 10.5C8.75 10.8315 8.88179 11.1494 9.11621 11.3838C9.35063 11.6182 9.66848 11.75 10 11.75C10.3315 11.75 10.6494 11.6182 10.8838 11.3838C11.1182 11.1494 11.25 10.8315 11.25 10.5C11.25 10.1685 11.1182 9.85063 10.8838 9.61621C10.6494 9.38179 10.3315 9.25 10 9.25Z" stroke="#525866"/>
</svg>
