<svg xmlns="http://www.w3.org/2000/svg" width="11" height="13" viewBox="0 0 11 13" fill="none">
    <path d="M2.4 4.2V3C2.4 2.20435 2.71607 1.44129 3.27868 0.87868C3.84129 0.31607 4.60435 0 5.4 0C6.19565 0 6.95871 0.31607 7.52132 0.87868C8.08393 1.44129 8.4 2.20435 8.4 3V4.2H10.2C10.3591 4.2 10.5117 4.26321 10.6243 4.37574C10.7368 4.48826 10.8 4.64087 10.8 4.8V12C10.8 12.1591 10.7368 12.3117 10.6243 12.4243C10.5117 12.5368 10.3591 12.6 10.2 12.6H0.6C0.44087 12.6 0.288258 12.5368 0.175736 12.4243C0.0632141 12.3117 0 12.1591 0 12V4.8C0 4.64087 0.0632141 4.48826 0.175736 4.37574C0.288258 4.26321 0.44087 4.2 0.6 4.2H2.4ZM2.4 5.4H1.2V11.4H9.6V5.4H8.4V6.6H7.2V5.4H3.6V6.6H2.4V5.4ZM3.6 4.2H7.2V3C7.2 2.52261 7.01036 2.06477 6.67279 1.72721C6.33523 1.38964 5.87739 1.2 5.4 1.2C4.92261 1.2 4.46477 1.38964 4.12721 1.72721C3.78964 2.06477 3.6 2.52261 3.6 3V4.2Z" fill="#99A0AE"/>
</svg>
