<svg xmlns="http://www.w3.org/2000/svg" width="9" height="8" viewBox="0 0 9 8" fill="none">
    <path d="M2.09181 0.343534C1.90457 -0.0325409 1.61734 0.000753392 1.32718 0.000753393C0.8086 0.000753393 -1.5389e-09 0.621912 0 1.77795C1.60297e-09 2.72538 0.417487 3.76249 1.82428 5.31391C3.18194 6.81116 4.96583 7.58568 6.44678 7.55931C7.92774 7.53295 8.23244 6.25853 8.23244 5.82815C8.23244 5.6374 8.11406 5.54222 8.03251 5.51636C7.52784 5.27416 6.59705 4.82287 6.38526 4.73807C6.17347 4.65328 6.06289 4.76797 5.99415 4.83036C5.80209 5.01339 5.42138 5.55279 5.29102 5.67411C5.16067 5.79543 4.96633 5.73403 4.88545 5.68817C4.58785 5.56874 3.78094 5.20983 3.13775 4.58632C2.34229 3.81522 2.29561 3.54993 2.14574 3.31377C2.02585 3.12485 2.11383 3.00893 2.15773 2.95828C2.32911 2.76053 2.56576 2.45522 2.67189 2.3035C2.77801 2.15177 2.69376 1.92142 2.64321 1.77795C2.42579 1.16092 2.2416 0.644393 2.09181 0.343534Z" fill="white"/>
</svg>
