<svg xmlns="http://www.w3.org/2000/svg" width="14" height="12" viewBox="0 0 14 12" fill="none">
    <path d="M0.675 0H12.825C13.004 0 13.1757 0.0711158 13.3023 0.197703C13.4289 0.32429 13.5 0.495979 13.5 0.675V10.575C13.5 10.754 13.4289 10.9257 13.3023 11.0523C13.1757 11.1789 13.004 11.25 12.825 11.25H0.675C0.495979 11.25 0.32429 11.1789 0.197703 11.0523C0.0711158 10.9257 0 10.754 0 10.575V0.675C0 0.495979 0.0711158 0.32429 0.197703 0.197703C0.32429 0.0711158 0.495979 0 0.675 0ZM12.15 2.86065L6.7986 7.65315L1.35 2.8458V9.9H12.15V2.86065ZM1.69493 1.35L6.79117 5.84685L11.8139 1.35H1.69493Z" fill="#99A0AE"/>
</svg>
