<svg xmlns="http://www.w3.org/2000/svg" width="18" height="18" viewBox="0 0 18 18" fill="none">
    <path d="M5.30572 10.6971C5.30447 11.0488 5.16417 11.3857 4.91542 11.6343C4.66667 11.8829 4.32968 12.023 3.97799 12.0241C3.62619 12.023 3.2891 11.8828 3.04033 11.6341C2.79156 11.3853 2.65134 11.0482 2.65027 10.6964C2.65027 9.96537 3.24697 9.36799 3.97799 9.36799H5.30639V10.6964L5.30572 10.6971ZM5.97532 10.6971C5.97532 9.96604 6.57202 9.36866 7.30304 9.36866C8.03407 9.36866 8.63144 9.96604 8.63144 10.6971V14.0228C8.63037 14.3747 8.49005 14.7119 8.24114 14.9607C7.99223 15.2095 7.65497 15.3496 7.30304 15.3505C6.95124 15.3494 6.61415 15.2092 6.36538 14.9605C6.11661 14.7117 5.97639 14.3746 5.97532 14.0228V10.6971ZM7.30304 5.30584C6.95135 5.30459 6.61444 5.16429 6.36582 4.91554C6.1172 4.6668 5.97706 4.3298 5.97599 3.97812C5.97599 3.24709 6.57269 2.65039 7.30372 2.65039C8.03474 2.65039 8.63212 3.24709 8.63212 3.97812V5.30652H7.30304V5.30584ZM7.30304 5.97544C8.03407 5.97544 8.63144 6.57214 8.63144 7.30317C8.63055 7.65521 8.49031 7.99257 8.24138 8.2415C7.99245 8.49043 7.65508 8.63067 7.30304 8.63157H3.97799C3.62607 8.6305 3.28888 8.49018 3.04009 8.24126C2.79131 7.99235 2.65116 7.65509 2.65027 7.30317C2.65027 6.57214 3.24697 5.97544 3.97799 5.97544H7.30372H7.30304ZM12.6943 7.30317C12.6943 6.57214 13.2916 5.97544 14.0227 5.97544C14.7537 5.97544 15.3504 6.57214 15.3504 7.30317C15.3495 7.65509 15.2094 7.99235 14.9606 8.24126C14.7118 8.49018 14.3746 8.6305 14.0227 8.63157H12.6943V7.30317V7.30317ZM12.0247 7.30317C12.0238 7.65509 11.8836 7.99235 11.6348 8.24126C11.3861 8.49018 11.0489 8.6305 10.6969 8.63157C10.3449 8.63067 10.0075 8.49043 9.75861 8.2415C9.50968 7.99257 9.36943 7.65521 9.36854 7.30317V3.97812C9.36854 3.24709 9.96592 2.65039 10.6969 2.65039C11.428 2.65039 12.0247 3.24709 12.0247 3.97812V7.30384V7.30317ZM10.6969 12.6944C11.428 12.6944 12.0247 13.2918 12.0247 14.0228C12.0236 14.3746 11.8834 14.7117 11.6346 14.9605C11.3858 15.2092 11.0487 15.3494 10.6969 15.3505C10.345 15.3496 10.0078 15.2095 9.75884 14.9607C9.50993 14.7119 9.36961 14.3747 9.36854 14.0228V12.6944H10.6969ZM10.6969 12.0248C10.345 12.0239 10.0078 11.8838 9.75884 11.635C9.50993 11.3862 9.36961 11.049 9.36854 10.6971C9.36854 9.96604 9.96592 9.36866 10.6969 9.36866H14.0227C14.7537 9.36866 15.3504 9.96604 15.3504 10.6971C15.3493 11.0489 15.2091 11.386 14.9603 11.6347C14.7116 11.8835 14.3745 12.0237 14.0227 12.0248H10.6969V12.0248Z" fill="#99A0AE"/>
</svg>
