<svg xmlns="http://www.w3.org/2000/svg" width="14" height="14" viewBox="0 0 14 14" fill="none">
    <path d="M6.75 13.5C3.02198 13.5 0 10.478 0 6.75C0 3.02198 3.02198 0 6.75 0C10.478 0 13.5 3.02198 13.5 6.75C13.5 10.478 10.478 13.5 6.75 13.5ZM5.20425 11.9252C4.5383 10.5127 4.15251 8.98439 4.06822 7.425H1.39185C1.5232 8.46376 1.9534 9.44201 2.63018 10.2409C3.30697 11.0398 4.20121 11.6249 5.20425 11.9252ZM5.42025 7.425C5.52217 9.07132 5.99265 10.6178 6.75 11.9826C7.52782 10.5817 7.98217 9.0244 8.07975 7.425H5.42025ZM12.1081 7.425H9.43177C9.34749 8.98439 8.96169 10.5127 8.29575 11.9252C9.29879 11.6249 10.193 11.0398 10.8698 10.2409C11.5466 9.44201 11.9768 8.46376 12.1081 7.425ZM1.39185 6.075H4.06822C4.15251 4.5156 4.5383 2.98734 5.20425 1.57478C4.20121 1.87507 3.30697 2.46021 2.63018 3.2591C1.9534 4.05799 1.5232 5.03624 1.39185 6.075ZM5.42093 6.075H8.07907C7.98171 4.47565 7.52758 2.91838 6.75 1.5174C5.97218 2.91833 5.51783 4.4756 5.42025 6.075H5.42093ZM8.29575 1.57478C8.96169 2.98734 9.34749 4.5156 9.43177 6.075H12.1081C11.9768 5.03624 11.5466 4.05799 10.8698 3.2591C10.193 2.46021 9.29879 1.87507 8.29575 1.57478Z" fill="#99A0AE"/>
</svg>
