<svg xmlns="http://www.w3.org/2000/svg" width="13" height="12" viewBox="0 0 13 12" fill="none">
    <path d="M4.41809 7.587C4.28487 7.807 4.21896 7.98613 4.32539 8.26581C4.61919 9.03831 4.20473 9.79 3.42573 9.99406C2.6911 10.1866 1.97534 9.70375 1.82958 8.91725C1.70042 8.22106 2.24067 7.53856 3.00821 7.42981C3.04989 7.42381 3.09211 7.42125 3.14607 7.418C3.1754 7.41625 3.20821 7.41425 3.24627 7.41138L4.41384 5.45356C3.6795 4.72339 3.24242 3.86978 3.33916 2.8121C3.40755 2.06443 3.70154 1.41833 4.23892 0.888757C5.26812 -0.125343 6.83831 -0.28958 8.05012 0.488826C9.21406 1.23651 9.74706 2.69292 9.29269 3.93944L8.22581 3.65C8.36856 2.95697 8.263 2.3346 7.79556 1.80146C7.48675 1.44946 7.0905 1.26496 6.63987 1.19698C5.73656 1.06051 4.84964 1.64088 4.58647 2.52749C4.28774 3.53379 4.73984 4.35578 5.97531 4.97518C5.45706 5.84631 4.94299 6.71988 4.41809 7.587ZM7.49 3.92086C7.86362 4.57999 8.243 5.24913 8.619 5.91206C10.5195 5.32413 11.9524 6.37613 12.4665 7.5025C13.0874 8.86306 12.6629 10.4746 11.4435 11.3139C10.1918 12.1756 8.60894 12.0284 7.49994 10.9215L8.37006 10.1934C9.46537 10.9028 10.4234 10.8694 11.1346 10.0294C11.7411 9.31269 11.7279 8.24413 11.1038 7.5425C10.3836 6.73288 9.41894 6.70819 8.25287 7.48544C7.76919 6.62731 7.277 5.77581 6.80862 4.91153C6.65069 4.62021 6.47625 4.45123 6.12031 4.38956C5.52581 4.28649 5.142 3.77598 5.11897 3.20401C5.09634 2.63836 5.42956 2.12706 5.95044 1.92784C6.46637 1.7305 7.07187 1.88979 7.41894 2.32846C7.70256 2.68688 7.79269 3.09027 7.64344 3.53229C7.61531 3.61575 7.58162 3.6974 7.54469 3.78678C7.52706 3.82934 7.50875 3.87376 7.49 3.92086ZM6.09512 9.30938H8.383C8.41487 9.35188 8.44469 9.39394 8.47381 9.43494C8.53456 9.52063 8.59225 9.602 8.65956 9.67425C9.14412 10.1923 9.96231 10.2181 10.4802 9.73719C11.0171 9.23881 11.0414 8.40163 10.5341 7.88131C10.0377 7.37219 9.18944 7.32356 8.72856 7.86263C8.44862 8.19025 8.16175 8.22875 7.79019 8.22294C6.8385 8.20825 5.88619 8.21813 4.93465 8.21813C4.99641 9.55681 4.49035 10.3909 3.48663 10.589C2.50376 10.783 1.59856 10.2815 1.27987 9.3665C0.917887 8.32681 1.36554 7.49531 2.65901 6.83538C2.56167 6.48281 2.46334 6.126 2.36601 5.7725C0.956231 6.07975 -0.101445 7.4475 0.00774921 8.98625C0.104199 10.3446 1.19992 11.5509 2.53993 11.7671C3.26774 11.8846 3.95158 11.7625 4.58601 11.4026C5.40219 10.9395 5.87581 10.2113 6.09512 9.30938Z" fill="#99A0AE"/>
</svg>
