<svg xmlns="http://www.w3.org/2000/svg" width="20" height="21" viewBox="0 0 20 21" fill="none">
    <path d="M6.25 11.375C7.0125 11.375 7.74404 11.6776 8.2832 12.2168C8.82237 12.756 9.125 13.4875 9.125 14.25C9.125 15.0125 8.82237 15.744 8.2832 16.2832C7.74404 16.8224 7.0125 17.125 6.25 17.125C5.4875 17.125 4.75596 16.8224 4.2168 16.2832C3.67763 15.744 3.375 15.0125 3.375 14.25C3.375 13.4875 3.67763 12.756 4.2168 12.2168C4.68857 11.745 5.30766 11.454 5.96582 11.3887L6.25 11.375ZM13.75 11.375C14.5125 11.375 15.244 11.6776 15.7832 12.2168C16.3224 12.756 16.625 13.4875 16.625 14.25C16.625 15.0125 16.3224 15.744 15.7832 16.2832C15.244 16.8224 14.5125 17.125 13.75 17.125C12.9875 17.125 12.256 16.8224 11.7168 16.2832C11.1776 15.744 10.875 15.0125 10.875 14.25C10.875 13.4875 11.1776 12.756 11.7168 12.2168C12.1886 11.745 12.8077 11.454 13.4658 11.3887L13.75 11.375ZM6.25 11.875C5.62011 11.875 5.01571 12.1249 4.57031 12.5703C4.12491 13.0157 3.875 13.6201 3.875 14.25C3.875 14.8799 4.12491 15.4843 4.57031 15.9297C4.96012 16.3195 5.4718 16.5594 6.01562 16.6133L6.25 16.625C6.87989 16.625 7.48429 16.3751 7.92969 15.9297C8.37509 15.4843 8.625 14.8799 8.625 14.25L8.61328 14.0156C8.55937 13.4718 8.3195 12.9601 7.92969 12.5703C7.48429 12.1249 6.87989 11.875 6.25 11.875ZM13.75 11.875C13.1201 11.875 12.5157 12.1249 12.0703 12.5703C11.6249 13.0157 11.375 13.6201 11.375 14.25C11.375 14.8799 11.6249 15.4843 12.0703 15.9297C12.4601 16.3195 12.9718 16.5594 13.5156 16.6133L13.75 16.625C14.3799 16.625 14.9843 16.3751 15.4297 15.9297C15.8751 15.4843 16.125 14.8799 16.125 14.25C16.125 13.6201 15.8751 13.0157 15.4297 12.5703C14.9843 12.1249 14.3799 11.875 13.75 11.875ZM5.875 3.875C6.6375 3.875 7.36904 4.17763 7.9082 4.7168C8.44737 5.25596 8.75 5.9875 8.75 6.75L8.73633 7.03418C8.67098 7.69234 8.37998 8.31143 7.9082 8.7832C7.36904 9.32237 6.6375 9.625 5.875 9.625L5.59277 9.61133C5.31202 9.58364 5.036 9.5146 4.77441 9.40625C4.42571 9.26177 4.10869 9.0501 3.8418 8.7832C3.5749 8.51631 3.36323 8.19929 3.21875 7.85059C3.07427 7.50177 3 7.12755 3 6.75C3 6.37245 3.07427 5.99823 3.21875 5.64941C3.36323 5.30071 3.5749 4.98369 3.8418 4.7168C4.10869 4.4499 4.42571 4.23823 4.77441 4.09375C5.036 3.9854 5.31202 3.91636 5.59277 3.88867L5.875 3.875ZM13.75 3.875C14.5125 3.875 15.244 4.17763 15.7832 4.7168C16.3224 5.25596 16.625 5.9875 16.625 6.75C16.625 7.5125 16.3224 8.24404 15.7832 8.7832C15.244 9.32237 14.5125 9.625 13.75 9.625C13.3724 9.625 12.9982 9.55073 12.6494 9.40625C12.3007 9.26177 11.9837 9.0501 11.7168 8.7832C11.4499 8.51631 11.2382 8.19929 11.0938 7.85059C10.9493 7.50178 10.875 7.12755 10.875 6.75L10.8887 6.46777C10.9164 6.18702 10.9854 5.911 11.0938 5.64941C11.2382 5.30071 11.4499 4.98369 11.7168 4.7168C11.9837 4.4499 12.3007 4.23823 12.6494 4.09375C12.9982 3.94927 13.3724 3.875 13.75 3.875ZM5.875 4.375C5.24511 4.375 4.64071 4.62491 4.19531 5.07031C3.74991 5.51571 3.5 6.12011 3.5 6.75L3.51172 6.98438C3.56563 7.5282 3.8055 8.03988 4.19531 8.42969C4.64071 8.87509 5.24511 9.125 5.875 9.125C6.50489 9.125 7.10929 8.87509 7.55469 8.42969C8.00009 7.98429 8.25 7.37989 8.25 6.75C8.25 6.12011 8.00009 5.51571 7.55469 5.07031C7.10929 4.62491 6.50489 4.375 5.875 4.375ZM13.75 4.375C13.1201 4.375 12.5157 4.62491 12.0703 5.07031C11.6249 5.51571 11.375 6.12011 11.375 6.75C11.375 7.37989 11.6249 7.98429 12.0703 8.42969C12.5157 8.87509 13.1201 9.125 13.75 9.125C14.3799 9.125 14.9843 8.87509 15.4297 8.42969C15.8751 7.98429 16.125 7.37989 16.125 6.75C16.125 6.12011 15.8751 5.51571 15.4297 5.07031C14.9843 4.62491 14.3799 4.375 13.75 4.375Z" stroke="#525866"/>
</svg>
