<svg xmlns="http://www.w3.org/2000/svg" width="20" height="21" viewBox="0 0 20 21" fill="none">
    <path d="M14.9521 13.2109C15.725 13.6473 16.3847 14.2632 16.8691 15.0127C17.3534 15.762 17.644 16.6164 17.7246 17.5H17.2217C17.1427 16.7131 16.881 15.9534 16.4492 15.2852C16.0171 14.6166 15.4316 14.0653 14.7461 13.6699L14.9521 13.2109ZM8.5 12.5C9.95869 12.5 11.3572 13.0799 12.3887 14.1113C13.3016 15.0242 13.8592 16.2247 13.9756 17.5H13.4746C13.3598 16.3576 12.8542 15.2839 12.0352 14.4648C11.0975 13.5272 9.82608 13 8.5 13C7.17392 13 5.90253 13.5272 4.96484 14.4648C4.14577 15.2839 3.64018 16.3576 3.52539 17.5H3.02441C3.14082 16.2247 3.69843 15.0242 4.61133 14.1113C5.57838 13.1443 6.86805 12.5742 8.22754 12.5068L8.5 12.5ZM14.5107 4.7793C14.9581 5.05194 15.3438 5.4183 15.6377 5.85742C16.0371 6.45436 16.2503 7.15675 16.25 7.875L16.2461 8.04395C16.207 8.88749 15.8744 9.69298 15.3027 10.3193C14.8183 10.8501 14.1895 11.2201 13.5 11.3916V10.874C13.9958 10.7298 14.4513 10.4664 14.8223 10.1006C15.2981 9.63134 15.6109 9.0215 15.7148 8.36133C15.8188 7.70122 15.708 7.02537 15.3994 6.43262C15.1565 5.96602 14.8003 5.57169 14.3672 5.28125L14.5107 4.7793ZM8.5 2.75C10.7101 2.75 12.5 4.53989 12.5 6.75C12.5 8.96011 10.7101 10.75 8.5 10.75C6.28989 10.75 4.5 8.96011 4.5 6.75C4.5 4.53989 6.28989 2.75 8.5 2.75ZM8.5 3.25C6.56636 3.25 5 4.81636 5 6.75C5 8.68364 6.56636 10.25 8.5 10.25C10.4336 10.25 12 8.68364 12 6.75C12 4.81636 10.4336 3.25 8.5 3.25Z" stroke="#525866"/>
</svg>
