<svg xmlns="http://www.w3.org/2000/svg" width="20" height="21" viewBox="0 0 20 21" fill="none">
    <path d="M3.25 4.25H16.75C16.8163 4.25 16.8799 4.27636 16.9268 4.32324C16.9736 4.37013 17 4.43369 17 4.5V8.17871C16.5567 8.2742 16.1459 8.49472 15.8203 8.82031C15.3749 9.26571 15.125 9.87011 15.125 10.5C15.125 11.1299 15.3749 11.7343 15.8203 12.1797C16.1459 12.5052 16.5568 12.7248 17 12.8203V16.5C17 16.5663 16.9736 16.6299 16.9268 16.6768C16.8799 16.7236 16.8163 16.75 16.75 16.75H3.25C3.18369 16.75 3.12013 16.7236 3.07324 16.6768C3.02636 16.6299 3 16.5663 3 16.5V12.8203C3.44321 12.7248 3.85414 12.5052 4.17969 12.1797C4.62509 11.7343 4.875 11.1299 4.875 10.5L4.86328 10.2656C4.80937 9.7218 4.5695 9.21012 4.17969 8.82031C3.85409 8.49472 3.44329 8.2742 3 8.17871V4.5C3 4.4337 3.02636 4.37013 3.07324 4.32324C3.10844 4.28804 3.15306 4.26447 3.20117 4.25488L3.25 4.25ZM16.5 13.2178L16.2285 13.0781L16.1162 13.0215C15.6855 12.7852 15.3231 12.4419 15.0625 12.0254C14.8334 11.6593 14.6893 11.247 14.6416 10.8193L14.6279 10.6348L14.625 10.5C14.625 9.41194 15.2295 8.46459 16.123 7.97656L16.1221 7.97559L16.2344 7.91699L16.5 7.77539V4.75H3.5V7.7793L3.76953 7.91992L3.88184 7.97754C4.31334 8.21385 4.67649 8.55752 4.9375 8.97461C5.16657 9.34073 5.31068 9.75302 5.3584 10.1807L5.37207 10.3652L5.375 10.5098C5.37335 11.0228 5.23452 11.5265 4.97266 11.9678C4.71057 12.4093 4.3347 12.7723 3.88477 13.0195L3.76758 13.0811L3.5 13.2217V16.25H16.5V13.2178Z" stroke="#525866"/>
</svg>
