<svg xmlns="http://www.w3.org/2000/svg" width="15" height="14" viewBox="0 0 15 14" fill="none">
    <path d="M14.25 0C14.4489 0 14.6397 0.0790176 14.7803 0.21967C14.921 0.360322 15 0.551088 15 0.75V4.875C14.5027 4.875 14.0258 5.07254 13.6742 5.42417C13.3225 5.77581 13.125 6.25272 13.125 6.75C13.125 7.24728 13.3225 7.72419 13.6742 8.07582C14.0258 8.42746 14.5027 8.625 15 8.625V12.75C15 12.9489 14.921 13.1397 14.7803 13.2803C14.6397 13.421 14.4489 13.5 14.25 13.5H0.75C0.551088 13.5 0.360322 13.421 0.21967 13.2803C0.0790176 13.1397 0 12.9489 0 12.75V8.625C0.497281 8.625 0.974195 8.42746 1.32583 8.07582C1.67746 7.72419 1.875 7.24728 1.875 6.75C1.875 6.25272 1.67746 5.77581 1.32583 5.42417C0.974195 5.07254 0.497281 4.875 0 4.875V0.75C0 0.551088 0.0790176 0.360322 0.21967 0.21967C0.360322 0.0790176 0.551088 0 0.75 0H14.25ZM13.5 1.5H1.5V3.726L1.617 3.78675C2.12574 4.06428 2.55445 4.46814 2.86183 4.95943C3.16921 5.45071 3.3449 6.01286 3.372 6.59175L3.375 6.75C3.37509 7.35618 3.21189 7.95119 2.90254 8.4725C2.59319 8.9938 2.14912 9.42214 1.617 9.7125L1.5 9.774V12H13.5V9.77325L13.383 9.71325C12.8743 9.43571 12.4456 9.03186 12.1382 8.54057C11.8308 8.04929 11.6551 7.48714 11.628 6.90825L11.625 6.75C11.625 5.472 12.3352 4.35975 13.383 3.7875L13.5 3.72525V1.5Z" fill="#0E121B"/>
</svg>
