<svg xmlns="http://www.w3.org/2000/svg" width="20" height="20" viewBox="0 0 20 20" fill="none">
    <path d="M16.75 3.25C16.9489 3.25 17.1397 3.32902 17.2803 3.46967C17.421 3.61032 17.5 3.80109 17.5 4V8.125C17.0027 8.125 16.5258 8.32254 16.1742 8.67417C15.8225 9.02581 15.625 9.50272 15.625 10C15.625 10.4973 15.8225 10.9742 16.1742 11.3258C16.5258 11.6775 17.0027 11.875 17.5 11.875V16C17.5 16.1989 17.421 16.3897 17.2803 16.5303C17.1397 16.671 16.9489 16.75 16.75 16.75H3.25C3.05109 16.75 2.86032 16.671 2.71967 16.5303C2.57902 16.3897 2.5 16.1989 2.5 16V11.875C2.99728 11.875 3.47419 11.6775 3.82583 11.3258C4.17746 10.9742 4.375 10.4973 4.375 10C4.375 9.50272 4.17746 9.02581 3.82583 8.67417C3.47419 8.32254 2.99728 8.125 2.5 8.125V4C2.5 3.80109 2.57902 3.61032 2.71967 3.46967C2.86032 3.32902 3.05109 3.25 3.25 3.25H16.75ZM16 4.75H4V6.976L4.117 7.03675C4.62574 7.31428 5.05445 7.71814 5.36183 8.20943C5.66921 8.70071 5.8449 9.26286 5.872 9.84175L5.875 10C5.87509 10.6062 5.71189 11.2012 5.40254 11.7225C5.09319 12.2438 4.64912 12.6721 4.117 12.9625L4 13.024V15.25H16V13.0233L15.883 12.9633C15.3743 12.6857 14.9456 12.2819 14.6382 11.7906C14.3308 11.2993 14.1551 10.7371 14.128 10.1583L14.125 10C14.125 8.722 14.8352 7.60975 15.883 7.0375L16 6.97525V4.75Z" fill="#525866"/>
</svg>
