<svg xmlns="http://www.w3.org/2000/svg" width="20" height="20" viewBox="0 0 20 20" fill="none">
    <path d="M10.3105 4.75H16.75C16.9489 4.75 17.1397 4.82902 17.2803 4.96967C17.421 5.11032 17.5 5.30109 17.5 5.5V16C17.5 16.1989 17.421 16.3897 17.2803 16.5303C17.1397 16.671 16.9489 16.75 16.75 16.75H3.25C3.05109 16.75 2.86032 16.671 2.71967 16.5303C2.57902 16.3897 2.5 16.1989 2.5 16V4C2.5 3.80109 2.57902 3.61032 2.71967 3.46967C2.86032 3.32902 3.05109 3.25 3.25 3.25H8.8105L10.3105 4.75ZM4 4.75V15.25H16V6.25H9.6895L8.1895 4.75H4ZM7 14.5C7 13.7044 7.31607 12.9413 7.87868 12.3787C8.44129 11.8161 9.20435 11.5 10 11.5C10.7956 11.5 11.5587 11.8161 12.1213 12.3787C12.6839 12.9413 13 13.7044 13 14.5H7ZM10 10.75C9.50272 10.75 9.02581 10.5525 8.67417 10.2008C8.32254 9.84919 8.125 9.37228 8.125 8.875C8.125 8.37772 8.32254 7.90081 8.67417 7.54917C9.02581 7.19754 9.50272 7 10 7C10.4973 7 10.9742 7.19754 11.3258 7.54917C11.6775 7.90081 11.875 8.37772 11.875 8.875C11.875 9.37228 11.6775 9.84919 11.3258 10.2008C10.9742 10.5525 10.4973 10.75 10 10.75Z" fill="#525866"/>
</svg>
